<svg width="40" height="40" viewBox="0 0 40 40" xmlns="http://www.w3.org/2000/svg" xmlns:xlink="http://www.w3.org/1999/xlink">
    <defs>
        <path id="gtdeh68ila" d="M0 0h40v40H0z"/>
    </defs>
    <g fill="none" fill-rule="evenodd">
        <g>
            <mask id="c3r94de25b" fill="#fff">
                <use xlink:href="#gtdeh68ila"/>
            </mask>
            <path d="M27.7 36.043a8.27 8.27 0 0 1-2.11-.282 8.396 8.396 0 0 1-4.942-3.622 8.437 8.437 0 0 1 .986-10.343 8.37 8.37 0 0 1 3.32-2.16 8.27 8.27 0 0 1 2.745-.477c4.618 0 8.376 3.788 8.376 8.442 0 4.655-3.758 8.442-8.376 8.442M13.966 13.551c-2.624 0-4.76-2.152-4.76-4.797 0-2.644 2.136-4.797 4.76-4.797 2.625 0 4.76 2.153 4.76 4.797 0 2.645-2.135 4.797-4.76 4.797m2.297 18.594-12.338.019v-3.85c0-5.58 4.505-10.12 10.04-10.12 1.657 0 3.216.413 4.594 1.13a12.394 12.394 0 0 0-2.296 12.821m11.436-16.942c-2.124 0-4.123.543-5.866 1.498-.709-.489-1.46-.92-2.255-1.272a8.761 8.761 0 0 0 3.073-6.675C22.651 3.92 18.763 0 13.966 0 9.169 0 5.28 3.92 5.28 8.754a8.761 8.761 0 0 0 3.073 6.675A14.077 14.077 0 0 0 0 28.314v3.85c0 2.169 1.745 3.927 3.896 3.927h14.855C20.995 38.492 24.168 40 27.699 40c6.794 0 12.302-5.55 12.302-12.399 0-6.847-5.508-12.398-12.302-12.398" fill="#181441" mask="url(#c3r94de25b)"/>
        </g>
        <path d="M30.575 29.212H27.7c-.835 0-1.51-.682-1.51-1.522V22.77c0-.84.675-1.522 1.51-1.522.833 0 1.51.682 1.51 1.522v3.4h1.365c.833 0 1.51.681 1.51 1.521 0 .84-.677 1.522-1.51 1.522" fill="#181441"/>
    </g>
</svg>
